<svg xmlns="http://www.w3.org/2000/svg" xmlns:xlink="http://www.w3.org/1999/xlink" viewBox="0 0 161 161" version="1.1" width="100px" height="100px">
    <!-- Generator: Sketch 52.6 (67491) - http://www.bohemiancoding.com/sketch -->
    <title>nestle</title>
    <desc>Created with Sketch.</desc>
    <g id="nestle" stroke="none" stroke-width="1" fill="none" fill-rule="evenodd" fill-color-id="-1" stroke-color-id="-1" recolor-fill="true" recolor-stroke="true">
        <g fill="#005695FF" fill-color-id="0" stroke-color-id="-1" recolor-fill="true" recolor-stroke="true">
            <path d="M94.637,16.98 C95.672,16.98 96.578,16.204 96.578,15.168 C96.578,14.133 95.672,13.356 94.637,13.356 C93.602,13.356 92.826,14.132 92.826,15.168 C92.826,16.204 93.602,16.98 94.637,16.98 Z M69.664,13.745 C70.57,13.745 71.217,12.969 71.217,12.193 C71.217,11.287 70.57,10.64 69.664,10.64 C68.758,10.64 68.111,11.287 68.111,12.193 C68.111,12.969 68.758,13.745 69.664,13.745 Z M50.902,52.046 L50.126,51.27 C52.326,49.199 54.525,46.094 54.914,44.282 C55.172,42.47 57.76,42.859 57.243,44.67 C56.595,47.129 53.749,49.976 50.902,52.046 Z M34.987,14.392 C31.105,16.075 30.588,20.085 33.304,22.544 C36.539,25.391 42.103,22.932 41.585,18.404 C45.984,18.663 48.831,14.005 48.184,10.899 C50.125,9.216 50.255,5.594 47.925,4.17 C45.338,2.617 43.008,3.135 41.456,6.111 C37.445,5.853 33.563,8.958 34.987,14.392 L33.175,13.616 C30.717,8.311 34.987,3.006 40.292,4.3 C41.457,1.713 45.339,-1.005 49.738,1.583 C53.102,3.653 53.878,9.088 50.256,11.676 C51.938,16.593 48.444,20.734 43.268,20.216 C42.621,26.686 36.669,27.462 32.658,24.486 C30.458,22.674 29.553,20.345 29.164,18.534 C28.646,16.594 28.646,14.911 26.835,12.971 C25.412,11.547 22.824,11.547 22.824,11.547 C22.824,6.889 18.554,2.619 13.119,4.69 C11.179,3.008 8.72,2.878 7.038,4.949 C6.132,6.114 5.485,9.219 8.591,10.642 C8.462,14.912 11.696,17.629 16.484,17.241 C16.613,19.441 19.072,21.64 21.401,21.899 L21.272,23.064 C18.943,22.805 17.649,23.582 16.096,25.522 C10.532,25.263 6.65,27.851 6.78,31.863 C2.898,32.509 2.122,36.65 4.322,38.85 C6.522,41.05 9.757,40.144 10.921,37.557 C14.932,38.333 18.426,35.487 18.555,32.251 C22.178,32.251 23.86,30.698 24.507,27.334 L25.801,27.464 C26.189,31.087 24.507,34.58 20.108,34.193 C19.979,38.592 15.838,40.922 11.827,39.498 C10.015,42.992 5.745,44.286 2.252,40.922 C-1.242,37.687 0.052,32.123 4.581,30.699 C4.581,26.429 7.816,22.418 13.897,23.97 C13.897,23.97 14.673,22.03 16.614,21.9 C15.32,21.383 14.414,20.736 14.156,19.312 C9.498,20.347 5.616,16.078 6.651,11.808 C2.51,9.608 2.381,5.468 4.451,3.009 C6.651,0.421 10.274,-0.096 13.379,2.621 C18.943,-0.355 25.025,3.397 24.636,9.608 C28.517,9.349 30.847,12.584 30.329,16.078 C30.975,14.525 31.752,13.878 33.175,13.619 L34.987,14.392 Z" id="Shape" fill-rule="nonzero" fill-color-id="0" stroke-color-id="-1" recolor-fill="true" recolor-stroke="true" fill="#005695FF"/>
            <path d="M44.433,6.888 L45.339,7.535 C43.527,11.417 40.422,15.299 37.704,17.628 L36.669,16.722 C38.61,13.616 42.621,8.44 44.433,6.888 Z M17.777,27.591 L18.295,28.626 C16.096,30.826 11.955,33.931 9.626,35.096 L8.85,34.061 C10.919,31.731 15.06,28.755 17.777,27.591 Z M23.083,16.463 L22.048,17.756 C19.072,15.816 13.249,10.64 11.955,8.698 L12.86,7.793 C15.707,9.216 21.141,14.133 23.083,16.463 Z M17.648,65.891 C18.036,67.574 17.648,69.514 19.201,71.326 C19.719,71.973 22.694,75.854 24.894,77.796 C21.917,78.961 16.095,81.419 11.955,81.936 C11.049,82.065 10.143,82.582 9.367,83.1 C8.849,84.006 8.332,85.559 8.073,87.371 C7.943,88.664 7.943,90.088 7.943,91.512 C7.943,92.805 8.59,96.946 10.014,99.662 C11.437,102.381 12.86,103.674 14.543,104.451 C14.931,104.32 15.708,104.191 16.872,104.191 C19.977,104.062 22.435,105.873 23.601,107.296 C23.989,107.942 24.895,108.073 25.93,108.073 C28.517,108.073 31.364,107.167 33.952,106.132 C34.599,105.743 36.151,104.579 37.704,103.415 C39.387,102.12 48.185,94.616 52.067,92.804 C54.137,93.839 57.502,95.263 60.995,95.263 C61.124,95.263 61.771,95.392 62.548,95.134 C63.583,94.874 65.007,94.486 66.819,94.099 C69.924,93.451 73.547,92.933 74.712,92.933 C77.559,93.064 85.968,93.193 88.041,93.193 C90.109,93.193 93.086,93.064 94.25,92.933 C96.062,92.287 100.074,91.251 103.826,89.57 C107.578,87.889 115.471,82.324 116.765,81.029 C117.411,80.511 118.058,79.865 118.447,79.348 C118.576,79.089 118.707,78.96 118.707,78.83 C118.707,78.7 118.576,73.266 118.576,73.266 C118.576,73.266 120.517,71.196 121.295,70.419 L121.295,70.16 C120.906,69.124 120.647,65.761 120.777,62.397 L118.965,61.491 C118.836,65.632 117.283,69.255 115.86,71.584 C113.014,71.972 107.45,73.654 105.508,75.983 L106.672,76.242 C108.484,75.207 110.426,74.56 112.754,74.56 C114.695,74.56 115.602,75.077 115.602,75.595 C115.602,75.983 115.213,76.889 115.084,77.277 C114.953,77.536 114.824,78.053 114.436,78.312 C111.719,81.288 108.743,83.747 104.991,85.817 C102.532,87.239 100.075,88.145 96.452,89.309 C95.286,89.569 93.733,89.957 92.829,90.346 C91.405,90.346 84.159,90.086 79.889,90.086 C75.619,90.086 66.821,90.732 64.103,91.379 C62.809,91.768 62.421,92.285 60.998,92.285 C58.281,92.285 54.658,90.861 52.458,89.826 C52.07,89.826 51.294,90.215 50.518,90.603 C48.965,91.378 45.471,96.296 43.401,94.744 C42.366,96.943 37.838,98.885 36.414,101.084 C36.543,100.049 38.354,92.545 38.484,90.992 C38.484,90.732 38.614,90.474 38.355,90.215 C36.803,87.498 32.144,85.817 29.557,85.299 C28.91,85.17 28.521,85.039 28.004,84.91 L23.863,83.746 L20.111,84.91 L24.51,85.685 L18.946,89.439 C19.981,89.05 25.933,87.369 26.321,87.238 C26.839,87.109 27.486,86.98 28.133,87.238 C29.039,87.498 31.239,88.015 32.662,88.533 C33.438,88.793 34.732,90.215 35.12,90.992 C35.25,91.379 35.25,92.027 35.379,93.58 C35.379,94.484 35.25,95.908 34.991,96.943 C34.344,99.66 33.05,101.73 32.662,102.507 C32.144,103.542 31.497,103.931 30.721,104.189 C29.557,104.835 28.004,105.095 26.451,105.224 C25.286,105.224 24.51,105.095 23.992,104.449 C22.569,102.379 18.817,100.437 15.064,101.213 C12.735,99.791 10.406,95.262 10.406,91.639 C10.406,89.44 11.441,85.946 12.088,84.264 C15.841,83.746 23.475,80.899 27.098,79.217 C27.874,79.217 30.075,78.441 32.144,78.441 C37.061,78.441 41.978,82.712 44.954,85.686 C45.472,84.911 46.377,83.616 48.965,83.616 C52.459,83.616 54.529,86.852 55.435,90.087 L57.246,88.794 C56.987,86.982 55.952,84.911 54.529,83.358 C53.364,82.194 51.036,81.159 49.224,81.159 C48.059,81.159 47.024,81.417 46.248,81.417 C43.79,81.417 42.754,80.253 40.814,78.959 C38.873,77.665 35.12,75.595 32.403,75.595 C30.72,75.595 29.944,76.242 28.521,76.242 C26.451,76.242 25.675,75.466 24.769,74.172 C24.252,73.654 22.181,71.843 21.664,71.067 C21.276,70.549 20.758,68.867 20.499,67.962 L17.648,65.891 Z" id="Shape" fill-rule="nonzero" fill-color-id="0" stroke-color-id="-1" recolor-fill="true" recolor-stroke="true" fill="#005695FF"/>
            <path d="M20.495,67.961 C21.141,68.608 21.66,69.255 22.435,69.901 C23.211,70.419 24.118,70.936 24.894,71.454 C26.187,72.101 27.611,72.878 28.905,73.395 C30.199,73.654 31.751,73.783 33.175,73.783 C35.246,73.783 37.704,73.395 39.774,74.43 C41.198,74.948 41.198,76.5 42.362,76.888 C44.044,77.535 48.702,77.664 51.291,77.664 C56.467,77.664 62.03,77.017 65.395,76.241 L63.842,74.429 C61.513,74.817 54.784,75.594 51.679,75.594 C47.409,75.594 43.268,74.818 43.268,73.136 C43.268,71.842 44.562,70.031 47.15,70.031 C49.867,70.031 54.008,71.713 54.784,71.972 C55.56,72.101 55.819,72.101 56.337,71.843 L57.89,71.067 C55.82,70.032 48.444,67.574 45.857,67.574 C44.692,67.574 43.916,67.703 43.139,68.738 C42.234,70.032 39.516,71.196 35.375,71.196 C33.046,71.196 29.682,70.678 29.035,70.42 C27.741,69.902 25.283,68.479 23.73,67.315 C21.66,65.892 19.848,64.21 18.684,62.269 C18.295,61.751 18.037,61.104 18.037,60.457 C18.037,59.939 18.296,59.551 18.296,59.163 C18.685,59.681 19.073,60.069 19.59,60.457 C21.79,62.657 25.025,64.209 28.389,64.856 C29.425,65.115 30.201,65.244 31.236,65.244 C32.659,65.244 33.953,64.468 34.859,63.691 L33.436,62.138 C33.047,62.267 32.142,62.267 31.624,62.267 C26.707,62.267 20.496,59.162 19.073,55.409 C18.944,55.021 18.685,54.891 18.944,54.503 C19.073,54.115 19.203,53.468 19.332,52.821 C19.59,53.08 20.238,53.597 20.885,54.115 C22.696,55.28 26.19,56.832 26.966,57.35 C28.648,56.832 29.942,56.185 30.977,55.668 C32.013,55.15 33.436,54.633 34.989,54.633 C38.612,54.633 42.752,56.703 46.635,58.644 L49.222,57.609 C45.728,55.151 38.353,51.787 34.213,51.787 C31.754,51.787 29.425,53.598 27.743,53.598 C25.803,53.598 20.109,50.751 20.109,48.422 C20.109,46.611 23.732,45.575 29.814,44.928 C28.778,46.352 27.743,48.033 26.838,49.586 L28.39,50.492 C37.706,36.906 47.54,28.107 55.693,22.672 C58.669,20.732 59.316,19.567 60.351,17.496 C62.939,12.191 65.397,8.309 69.538,8.309 C71.479,8.309 73.032,9.344 74.196,10.638 L77.172,11.543 L74.067,13.613 L77.172,14.907 C73.161,16.072 67.597,20.083 65.268,25.906 C60.997,26.035 58.927,29.658 57.504,32.505 C56.469,34.575 55.046,35.352 52.716,36.776 L34.987,49.199 L37.445,49.587 L53.878,38.589 C57.113,36.389 58.666,34.707 59.442,33.283 C60.866,30.178 62.547,27.848 65.782,27.848 C67.335,27.848 69.017,28.624 70.441,29.918 L73.287,30.824 L70.182,32.765 L72.77,34.317 C65.266,36.646 60.607,42.081 57.89,52.432 L59.831,52.82 C60.866,49.456 61.901,46.351 63.583,43.504 C67.982,43.504 72.382,43.375 76.781,43.375 C88.297,43.375 97.873,43.893 103.049,45.316 L101.237,42.211 C95.673,41.176 87.651,40.787 76.781,40.787 C73.029,40.787 69.406,40.917 65.653,40.917 C68.111,38.458 71.476,36.259 76.781,34.706 L73.029,32.636 L77.17,30.307 L71.477,28.237 C70.571,27.331 69.277,26.425 67.725,26.037 C69.537,20.473 75.747,17.238 81.699,15.038 L77.559,13.356 L81.699,11.027 L75.23,8.956 C73.547,7.016 71.995,6.11 69.407,6.11 C63.455,6.11 60.996,11.286 58.538,15.815 C57.373,18.273 56.597,19.308 54.397,20.732 C49.868,23.708 43.916,28.366 38.352,34.189 C35.506,32.118 29.424,25.908 27.871,22.543 C27.225,23.319 26.577,25.131 26.577,25.131 C27.224,25.778 34.212,32.766 36.8,35.871 C36.67,36 36.412,36.26 36.282,36.518 C33.435,37.036 26.189,37.812 23.731,37.423 L22.437,39.881 C24.249,39.752 31.365,38.846 34.471,38.716 C33.565,39.751 32.659,40.916 31.753,42.08 C22.437,43.115 16.356,45.056 16.356,48.42 C16.356,48.938 16.485,49.585 16.485,50.232 C16.485,51.655 15.967,52.173 14.932,52.82 C14.285,53.208 14.285,53.596 14.544,53.985 C14.803,54.374 16.226,56.443 16.226,56.832 C16.226,57.608 15.579,58.255 15.061,58.902 C14.543,59.42 14.543,59.549 14.932,60.196 L17.649,65.889 L20.495,67.961 Z M135.008,36.26 C134.49,36.778 133.973,37.554 133.455,38.2 L132.031,36.13 C136.949,29.531 150.146,26.426 157.91,25.779 L157.91,22.285 C156.875,22.543 155.84,22.931 154.805,23.19 C153.512,23.449 152.217,23.837 151.182,23.708 C150.018,23.708 149.112,23.32 148.725,22.673 C147.688,21.25 148.725,19.05 152.088,16.98 L149.371,14.65 C147.301,17.368 145.359,20.343 143.289,22.026 C141.348,23.708 139.408,24.484 137.855,23.319 C136.949,22.672 136.689,22.414 136.56,20.732 C136.689,18.273 138.113,14.521 139.408,12.063 L136.303,11.675 C135.783,15.427 134.233,18.532 132.549,21.12 C130.61,24.355 128.022,26.684 125.303,28.495 L123.492,26.813 C125.691,25.519 128.408,23.448 130.221,20.602 C132.42,17.238 134.233,13.097 134.233,9.474 L143.29,10.251 C141.995,11.933 139.927,15.686 139.149,18.273 C138.76,19.696 138.76,20.861 139.278,21.25 C140.184,21.896 141.866,20.732 143.549,19.05 C145.877,16.463 148.207,12.71 149.111,11.416 L155.84,16.851 C152.863,18.404 150.018,20.215 150.535,21.25 C151.053,22.155 152.994,21.896 155.064,21.25 C156.746,20.732 158.556,19.956 159.98,19.05 L159.98,27.979 C156.746,27.979 151.31,28.625 146.134,30.178 C147.429,31.861 150.923,32.507 153.122,32.895 L152.087,40.141 C146.395,37.683 141.994,36.39 135.008,36.26 L137.336,34.19 C142.383,34.319 147.559,35.872 150.406,37.295 L150.793,34.578 C148.207,34.19 144.971,32.767 143.549,31.085 C141.348,31.861 139.149,32.896 137.336,34.19 L135.008,36.26 Z" id="Shape" fill-rule="nonzero" fill-color-id="0" stroke-color-id="-1" recolor-fill="true" recolor-stroke="true" fill="#005695FF"/>
            <path d="M107.836,59.292 L109.906,54.634 C107.405737,51.6924856 105.114469,48.5795426 103.049,45.318 L101.237,42.213 C96.967,34.191 98.52,30.309 96.319,26.686 C94.38,23.839 85.321,25.651 83.897,25.91 L86.485,21.64 L81.309,22.028 L85.709,16.852 C86.227,16.076 86.355,15.558 86.873,13.746 C87.65,10.9 89.978,6.242 96.967,6.242 C104.6,6.242 107.059,12.453 110.293,15.17 C114.866899,18.84995 119.271114,22.7359627 123.492,26.816 L125.303,28.498 C127.708292,30.8948823 129.955986,33.444875 132.032,36.132 L133.456,38.202 C142.772,51.659 154.159,77.409 159.335,89.183 C159.724,90.349 160.112,91.513 160.499,92.417 C157.007,90.478 153.253,88.147 149.243,85.431 L147.042,83.878 L142.772,80.773 L140.444,78.832 C139.006971,77.7823189 137.624816,76.6595059 136.303,75.468 L140.959,102.252 C141.219,103.936 142.643,103.676 143.678,102.252 C144.713,100.83 145.231,100.441 144.713,98.629 L140.443,78.833 L142.771,80.774 L146.912,97.465 C147.301,99.018 147.947,99.535 149.76,99.535 C151.571,99.664 151.83,99.017 151.571,97.853 L147.042,83.878 L149.243,85.431 L153.513,97.982 C154.677,101.216 153.513,101.605 151.572,101.605 C149.761,101.605 147.949,101.087 146.914,101.734 C145.879,102.511 144.586,104.322 142.902,105.875 C141.609,107.299 139.539,107.041 139.15,104.322 L133.974,73.398 C130.74,70.422 127.505,67.316 124.658,64.082 C123.494,63.564 122.07,62.917 120.777,62.4 L118.965,61.494 C118.19,61.105 117.672,60.976 117.541,60.847 C116.119,62.529 114.695,64.47 113.143,65.764 C112.366,66.54 111.719,66.929 110.555,66.929 C110.166,66.929 109.649,66.929 109.26,66.67 C108.742,66.411 108.356,65.894 107.838,65.117 C107.449,64.599 106.932,63.823 106.414,63.047 C105.379,61.365 104.344,59.165 103.309,57.483 C102.274,55.542 101.239,54.119 101.11,53.86 C100.979,53.472 100.462,53.084 100.462,53.084 C99.816,53.86 99.427,55.542 99.427,56.578 L97.616,55.931 C97.745,54.637 98.262,52.955 98.651,52.179 C98.651,51.532 97.876,50.626 97.227,50.626 C96.321,50.626 95.416,51.532 95.028,53.343 L93.087,54.249 C93.218,51.273 94.251,48.038 97.228,48.038 C99.558,48.038 101.111,49.85 102.146,51.532 C103.307,53.21 107.059,58.257 107.836,59.292 L109.258,61.103 C109.518,62.268 110.035,62.915 110.293,63.303 C110.811,64.079 111.328,64.079 112.105,63.303 C112.494,63.044 113.529,62.138 114.693,60.974 C115.599,60.068 116.504,58.774 116.892,58.257 C117.927,58.645 119.997,59.68 121.55,60.327 C114.693,51.788 107.964,41.436 105.116,34.449 C103.952,31.473 106.282,30.567 107.317,33.414 C110.422,41.178 119.35,55.022 125.95,62.268 C133.454,70.549 147.3,82.713 156.356,87.5 C155.063,84.912 153.381,81.289 151.309,77.019 C140.311,70.808 129.313,59.421 124.137,49.587 L126.336,49.846 C131.125,58.386 142.641,69.773 149.498,73.008 C143.287,59.81 135.135,43.118 128.924,36.001 C121.031,27.073 112.492,20.085 108.352,16.592 C104.34,12.969 102.659,8.57 96.965,8.57 C92.176,8.57 89.588,12.064 88.684,15.428 C88.424,16.204 88.295,16.593 87.907,17.24 L85.579,19.957 L90.495,19.439 L87.649,23.32 C87.649,23.32 95.282,21.638 98.001,25.261 C100.847,29.143 99.036,33.542 103.823,42.212 C105.893,45.964 110.94,52.692 112.622,54.245 L109.257,61.102 L107.836,59.292 Z M32.528,60.457 L31.363,59.681 C32.01,59.163 33.304,58.258 34.598,57.74 C35.2172672,57.4991228 35.8737236,57.3678315 36.538,57.352 C37.832,57.352 38.996,57.87 40.032,58.517 C41.714,59.423 43.655,60.458 45.208,60.458 C45.725,60.458 46.243,60.328 46.89,60.328 C48.443,60.328 49.866,60.975 50.642,60.975 C51.16,60.975 51.418,60.587 51.807,60.069 C52.583,58.904 53.747,57.999 55.171,57.481 C56.594,56.834 58.535,56.575 60.476,56.575 C62.158,56.575 63.581,56.834 64.358,56.963 C64.358,56.963 63.193,58.386 62.935,58.775 C61.253,58.775 58.277,58.646 56.336,59.422 C55.042,59.94 54.654,60.716 54.654,61.622 C54.654,63.045 56.336,63.692 58.018,64.21 C59.183,64.469 60.347,64.598 61.253,64.598 C62.547,64.598 64.876,64.08 67.205,63.563 C70.052,63.045 72.64,62.269 73.416,62.01 L74.451,63.822 C71.346,64.857 68.111,65.892 65.135,66.41 C63.453,66.799 61.9,67.057 60.477,67.057 C58.019,67.057 55.431,66.022 53.36,64.987 C51.548,64.211 49.996,63.305 48.443,63.305 C46.89,63.305 45.338,63.823 43.914,64.728 C43.138,65.117 40.938,66.669 38.997,67.446 C37.444,67.964 36.28,68.352 34.727,68.352 C33.433,68.352 32.527,68.093 31.88,67.576 L34.209,66.152 C34.597,66.411 35.114,66.54 35.373,66.54 C35.762,66.54 36.149,66.411 37.056,66.022 C37.573,65.893 38.349,65.375 38.867,65.116 C39.773,64.469 40.032,64.081 40.42,63.822 C41.196,63.304 41.455,62.528 40.549,61.752 C40.032,61.364 39.644,60.976 39.126,60.587 C38.22,60.069 37.703,59.681 36.15,59.681 C34.469,59.68 33.175,60.068 32.528,60.457 Z" id="Shape" fill-rule="nonzero" fill-color-id="0" stroke-color-id="-1" recolor-fill="true" recolor-stroke="true" fill="#005695FF"/>
            <path d="M65.394,61.362 C65.394,61.362 63.97,60.974 63.582,60.974 C64.488,59.68 65.782,58.645 66.687,57.998 C68.628,56.704 70.569,55.928 73.674,55.798 C74.45,55.669 76.132,55.539 77.038,55.539 C77.944,55.668 79.367,55.668 80.661,55.927 C81.567,56.056 82.473,56.315 83.248,56.445 C83.637,56.574 85.189,56.574 85.707,56.445 C87.906,56.057 90.494,55.28 91.789,54.504 L92.307,56.574 C89.459,58.127 86.225,59.55 83.119,59.55 C81.695,59.55 80.014,59.421 78.461,59.291 C75.873,59.032 73.544,58.644 72.768,58.644 C70.57,58.645 67.464,59.68 65.394,61.362 Z M63.324,72.878 L60.607,71.584 C64.359,69.772 70.052,67.832 72.511,67.443 C74.84,67.055 77.557,66.797 79.11,66.278 C79.886,68.09 81.309,69.901 83.25,69.901 C84.027,69.901 85.191,69.384 86.484,68.866 C87.908,68.219 89.203,67.573 89.978,67.313 C90.755,66.925 93.214,65.89 95.414,64.855 C96.189,64.467 98.389,63.432 98.519,63.432 L99.941,64.208 C99.554,66.02 98.777,68.349 98.002,70.031 C97.742,70.677 97.354,71.196 97.096,71.584 C96.45,72.231 95.414,73.266 94.119,74.172 C92.697,75.207 90.885,76.242 89.072,77.277 C87.65,78.053 86.226,78.959 84.674,79.606 L84.028,78.183 C86.3049632,76.8365811 88.5075075,75.3681069 90.626,73.784 C91.4982442,73.1589889 92.3204047,72.4668896 93.085,71.714 C93.603,71.326 93.862,70.937 94.12,70.549 C94.766,69.773 95.802,67.961 96.061,67.185 C95.155,67.574 92.049,69.125 90.625,69.773 C88.943,70.678 86.355,71.973 84.803,72.75 C83.768,73.267 82.733,73.526 81.957,73.526 C80.274,73.526 79.498,72.361 79.11,71.585 C78.075,69.773 77.04,69.644 74.064,69.644 C70.699,69.514 66.042,70.937 63.324,72.878 Z M79.239,64.338 C79.239,64.338 78.851,62.785 78.592,62.138 C78.592,62.138 79.11,62.009 79.757,62.009 C80.663,62.009 83.25,62.268 84.285,62.268 C88.168,62.268 89.59,61.103 90.756,60.068 C91.791,59.162 92.826,58.386 95.414,58.386 C97.742,58.386 100.459,59.292 101.236,59.68 L101.107,61.88 C99.941,61.233 98.388,60.845 96.966,60.845 C96.06,60.845 95.154,60.845 94.507,61.233 C93.86,61.621 93.343,62.139 92.696,62.656 C92.048,63.174 91.141,63.691 89.848,64.209 C88.684,64.726 87.131,64.985 84.801,64.985 C81.828,64.985 80.145,64.468 79.239,64.338 Z" id="Shape" fill-rule="nonzero" fill-color-id="0" stroke-color-id="-1" recolor-fill="true" recolor-stroke="true" fill="#005695FF"/>
            <path d="M54.396,80.512 L56.208,79.736 C57.76,80.383 60.219,81.16 61.901,81.16 C62.936,81.16 63.713,80.771 64.359,80.512 C64.877,80.254 70.958,77.278 73.934,76.243 C74.84,75.854 75.875,75.725 76.263,75.725 C77.039,75.725 77.039,75.984 77.298,76.372 C77.816,77.278 82.345,83.617 82.732,84.006 C86.484,82.842 90.367,81.16 92.566,79.089 C94.896,76.889 96.836,74.301 98.777,72.231 C99.423,71.454 100.33,70.808 100.718,70.549 C102.659,69.514 108.739,69.384 111.198,69.514 L109.774,71.584 C105.247,71.584 102.788,72.102 101.624,72.878 C101.235,73.266 100.458,74.043 99.812,74.948 C98.259,76.889 96.578,79.606 95.931,80.124 C97.224,81.028 98.648,81.806 100.976,81.806 C104.73,81.806 107.447,79.476 108.871,78.183 L110.164,78.83 C109.244906,80.136762 108.107215,81.2751297 106.801,82.195 C105.248,83.23 103.307,84.006 102.272,84.265 C100.073,83.876 95.284,82.841 94.12,82.712 C89.979,84.394 83.122,87.11 80.922,87.757 C80.4222656,87.9289212 79.8974802,88.0167796 79.369,88.017 C77.557,88.146 75.099,88.146 72.77,88.017 C71.218,88.017 69.665,88.017 68.888,87.888 L66.818,85.818 C68.629,86.205 69.276,86.205 70.958,86.205 C74.84,86.205 77.428,85.559 78.204,85.43 C78.98,85.172 79.11,84.784 78.851,84.135 C78.463,83.231 77.945,82.196 77.039,81.16 C76.521,80.642 75.486,79.736 75.098,79.477 C74.58,79.089 74.063,78.96 72.51,79.477 C71.217,79.866 66.946,82.195 65.135,83.23 C64.229,83.617 63.453,83.876 61.9,83.488 C60.089,83.1 55.948,81.549 54.396,80.512 Z M66.17,33.414 C66.946,33.414 67.723,32.638 67.723,31.861 C67.723,30.955 66.947,30.308 66.17,30.308 C65.265,30.308 64.617,30.954 64.617,31.861 C64.618,32.637 65.265,33.414 66.17,33.414 Z M124.785,122.824 C124.785,121.66 123.75,120.625 122.457,120.625 L119.223,120.625 C117.928,120.625 116.893,121.66 116.893,122.824 L117.022,157.502 C117.022,158.666 117.928,159.701 119.223,159.701 L122.457,159.701 C123.75,159.701 124.785,158.666 124.785,157.502 L124.785,122.824 Z M128.926,123.859 L128.926,125.412 C128.926,126.189 129.444,126.707 130.221,126.707 L152.994,126.707 C154.029,126.707 154.935,125.801 154.935,124.766 L154.935,122.049 C154.935,121.014 154.029,119.979 152.994,120.108 C152.994,120.108 130.996,122.307 130.221,122.436 C129.443,122.436 128.926,123.084 128.926,123.859 Z M110.424,159.701 C104.731,159.701 101.236,155.431 101.236,150.644 L101.236,136.798 L99.554,136.798 C98.777,136.798 98.001,136.023 98.001,135.245 L98.001,132.915 C98.001,132.011 98.776,131.364 99.554,131.364 L101.236,131.364 L101.236,122.823 C101.236,121.659 102.142,120.624 103.435,120.624 L106.669,120.624 C107.835,120.624 108.739,121.659 108.739,122.823 L108.739,131.364 L113.786,131.364 C114.692,131.364 115.339,132.01 115.339,132.915 L115.339,135.245 C115.339,136.022 114.693,136.798 113.786,136.798 L108.739,136.798 L108.739,149.609 C108.739,152.066 110.292,153.879 113.01,153.879 L113.528,153.879 C114.432,153.879 115.21,154.525 115.21,155.561 L115.21,158.02 C115.21,158.926 114.433,159.702 113.528,159.702 L110.424,159.702 L110.424,159.701 Z M71.605,145.08 C71.605,137.705 67.206,130.33 57.242,130.33 C48.055,130.33 43.009,137.576 43.009,145.08 C43.009,153.101 48.443,160.219 57.371,160.219 C63.453,160.219 69.405,157.114 70.569,151.809 C70.698,151.163 70.181,150.127 69.275,150.127 L64.876,150.127 C64.1,150.127 63.453,150.516 63.064,151.162 C61.77,152.973 59.959,153.879 57.371,153.879 C53.489,153.879 50.901,150.902 50.642,147.539 L69.145,147.539 C70.829,147.539 71.605,146.633 71.605,145.08 Z M50.772,141.975 C51.031,138.741 53.877,136.282 57.242,136.282 C60.736,136.282 63.582,138.741 63.97,141.975 L50.772,141.975 Z M155.711,145.08 C155.711,137.705 151.311,130.33 141.348,130.33 C132.16,130.33 127.116,137.576 127.116,145.08 C127.116,153.101 132.55,160.219 141.479,160.219 C147.559,160.219 153.512,157.114 154.676,151.809 C154.805,151.163 154.287,150.127 153.383,150.127 L148.983,150.127 C148.236565,150.120049 147.544202,150.515521 147.171,151.162 C145.878,152.973 144.067,153.879 141.349,153.879 C137.597,153.879 135.009,150.902 134.751,147.539 L153.253,147.539 C154.936,147.539 155.711,146.633 155.711,145.08 Z M134.879,141.975 C135.137,138.741 137.984,136.282 141.348,136.282 C144.842,136.282 147.688,138.741 147.948,141.975 L134.879,141.975 Z" id="Shape" fill-rule="nonzero" fill-color-id="0" stroke-color-id="-1" recolor-fill="true" recolor-stroke="true" fill="#005695FF"/>
            <path d="M95.025,121.014 L35.245,121.014 C33.822,121.014 32.786,122.178 32.786,123.471 L32.915,147.022 C32.915,147.022 20.105,123.731 19.458,122.567 C18.811,121.401 17.387,120.366 15.576,120.366 L10.659,120.366 C9.236,120.366 8.201,121.532 8.201,122.825 L8.201,157.243 C8.201,158.667 9.236,159.702 10.659,159.702 L13.764,159.702 C15.187,159.702 16.222,158.667 16.222,157.243 L16.093,133.177 C16.093,133.177 29.032,156.597 29.679,157.503 C30.326,158.796 31.62,159.702 33.431,159.702 L37.959,159.702 C39.383,159.702 40.418,158.667 40.418,157.243 L40.418,126.837 L95.022,126.837 C95.928,126.837 96.704,126.06 96.704,125.155 L96.704,122.696 C96.707,121.789 95.932,121.014 95.025,121.014 Z" id="Path" fill-color-id="0" stroke-color-id="-1" recolor-fill="true" recolor-stroke="true" fill="#005695FF"/>
            <path d="M85.32,136.023 C87.908,136.023 89.849,136.927 90.625,138.611 C90.885,139.386 91.531,139.515 92.437,139.515 L96.06,139.515 C96.578,139.515 97.353,138.997 97.353,138.222 C97.353,134.081 92.308,130.329 85.32,130.329 C78.074,130.329 73.287,133.821 73.287,139.257 C73.287,143.527 76.651,145.986 80.662,147.15 C82.603,147.539 85.837,148.314 87.39,148.832 C88.943,149.221 90.495,149.738 90.495,151.162 C90.495,153.49 88.167,154.139 85.448,154.139 C82.991,154.139 80.532,153.102 79.885,151.291 C79.496,150.256 78.72,150.127 77.685,150.127 L74.062,150.127 C73.415,150.127 72.639,150.773 72.639,151.551 L72.639,152.067 C72.639,156.079 78.074,160.219 85.579,160.219 C90.755,160.219 98.13,158.02 98.13,151.033 C98.13,146.89 95.413,144.045 90.884,142.881 C89.202,142.492 85.062,141.328 84.155,141.199 C82.473,140.681 80.92,140.164 80.92,138.869 C80.921,136.67 82.863,136.023 85.32,136.023 Z" id="Path" fill-color-id="0" stroke-color-id="-1" recolor-fill="true" recolor-stroke="true" fill="#005695FF"/>
        </g>
    </g>
</svg>