<svg xmlns="http://www.w3.org/2000/svg" xmlns:xlink="http://www.w3.org/1999/xlink" viewBox="0 0 120 40" version="1.1" width="100px" height="34px">
    <!-- Generator: Sketch 52.6 (67491) - http://www.bohemiancoding.com/sketch -->
    <title>visa</title>
    <desc>Created with Sketch.</desc>
    <g id="Page-1" stroke="none" stroke-width="1" fill="none" fill-rule="evenodd" fill-color-id="-1" stroke-color-id="-1" recolor-fill="true" recolor-stroke="true">
        <g id="visa" fill-color-id="-1" stroke-color-id="-1" recolor-fill="true" recolor-stroke="true">
            <g id="Group" fill="#1A1F71" fill-rule="nonzero" fill-color-id="0" stroke-color-id="-1" recolor-fill="true" recolor-stroke="true">
                <path d="M51.935,38.571 L42.202,38.571 L48.285,1.187 L58.019,1.187 L51.935,38.571 Z M34.014,1.187 L24.735,26.9 L23.637,21.363 L23.638,21.365 L20.363,4.553 C20.363,4.553 19.967,1.187 15.746,1.187 L0.406,1.187 L0.226,1.82 C0.226,1.82 4.917,2.796 10.407,6.093 L18.863,38.572 L29.004,38.572 L44.489,1.187 L34.014,1.187 Z M110.569,38.571 L119.506,38.571 L111.714,1.186 L103.89,1.186 C100.277,1.186 99.397,3.972 99.397,3.972 L84.881,38.571 L95.027,38.571 L97.056,33.018 L109.429,33.018 L110.569,38.571 Z M99.859,25.347 L104.973,11.357 L107.85,25.347 L99.859,25.347 Z M85.642,10.177 L87.031,2.149 C87.031,2.149 82.745,0.519 78.277,0.519 C73.447,0.519 61.977,2.63 61.977,12.895 C61.977,22.553 75.439,22.673 75.439,27.746 C75.439,32.819 63.364,31.91 59.379,28.711 L57.932,37.105 C57.932,37.105 62.278,39.216 68.918,39.216 C75.56,39.216 85.58,35.777 85.58,26.417 C85.58,16.697 71.997,15.792 71.997,11.566 C71.998,7.339 81.477,7.882 85.642,10.177 Z" id="Shape" fill-color-id="0" stroke-color-id="-1" recolor-fill="true" recolor-stroke="true" fill="#1A1F71"/>
            </g>
            <path d="M23.638,21.364 L20.363,4.552 C20.363,4.552 19.967,1.186 15.746,1.186 L0.406,1.186 L0.226,1.819 C0.226,1.819 7.599,3.347 14.671,9.072 C21.433,14.544 23.638,21.364 23.638,21.364 Z" id="Path" fill="#F7B600" fill-color-id="1" stroke-color-id="-1" recolor-fill="true" recolor-stroke="true"/>
        </g>
    </g>
</svg>